<svg width="922" height="1064" viewBox="0 0 922 1064" fill="none" xmlns="http://www.w3.org/2000/svg">
<path fill-rule="evenodd" clip-rule="evenodd" d="M461 1063.85C715.603 1063.85 922 857.457 922 602.854C922 348.251 715.603 141.854 461 141.854C206.397 141.854 0 348.251 0 602.854C0 857.457 206.397 1063.85 461 1063.85Z" fill="white"/>
<path fill-rule="evenodd" clip-rule="evenodd" d="M461 1062.85C715.051 1062.85 921 856.904 921 602.854C921 348.803 715.051 142.854 461 142.854C206.949 142.854 1 348.803 1 602.854C1 856.904 206.949 1062.85 461 1062.85ZM922 602.854C922 857.457 715.603 1063.85 461 1063.85C206.397 1063.85 0 857.457 0 602.854C0 348.251 206.397 141.854 461 141.854C715.603 141.854 922 348.251 922 602.854Z" fill="black"/>
<path d="M425.774 292.562H438.099V211.358H425.662L404.277 226.552V238.933L425.493 223.851H425.774V292.562ZM457.135 235.162V235.275H469.065V235.106C469.065 226.665 475.762 220.25 484.653 220.25C493.094 220.25 499.622 225.989 499.622 233.192C499.622 239.552 497.033 243.828 487.129 254.127L457.81 284.009V292.562H513.353V281.926H474.805V281.645L495.12 261.218C506.994 249.062 512.058 242.028 512.058 232.574C512.058 219.687 500.522 209.838 485.046 209.838C468.896 209.838 457.135 220.531 457.135 235.162Z" fill="black"/>
<path fill-rule="evenodd" clip-rule="evenodd" d="M425.774 292.562H438.099V211.358H425.662L404.277 226.552V238.933L425.493 223.851H425.774V292.562ZM405.277 236.995L425.174 222.851H426.774V291.562H437.099V212.358H425.981L405.277 227.068V236.995ZM495.12 261.218C506.994 249.062 512.058 242.028 512.058 232.574C512.058 219.687 500.522 209.838 485.046 209.838C469.225 209.838 457.615 220.101 457.149 234.275C457.14 234.569 457.135 234.865 457.135 235.162V235.275H469.065V235.106C469.065 226.665 475.762 220.25 484.653 220.25C493.094 220.25 499.622 225.989 499.622 233.192C499.622 239.552 497.033 243.828 487.129 254.127L457.81 284.009V292.562H513.353V281.926H474.805V281.645L495.12 261.218ZM512.353 282.926H473.805V281.233L494.405 260.519C494.406 260.518 494.407 260.517 494.408 260.516C506.297 248.345 511.058 241.577 511.058 232.574C511.058 220.39 500.134 210.838 485.046 210.838C469.689 210.838 458.614 220.737 458.15 234.275H468.085C468.511 225.655 475.544 219.25 484.653 219.25C493.51 219.25 500.622 225.31 500.622 233.192C500.622 236.548 499.928 239.386 497.948 242.696C495.999 245.954 492.803 249.669 487.85 254.82L487.843 254.828L458.81 284.417V291.562H512.353V282.926Z" fill="black"/>
<path d="M647.454 345.748H659.778V264.544H647.341L625.957 279.738V292.119L647.173 277.037H647.454V345.748Z" fill="black"/>
<path fill-rule="evenodd" clip-rule="evenodd" d="M647.454 345.748H659.778V264.544H647.341L625.957 279.738V292.119L647.173 277.037H647.454V345.748ZM626.957 290.181L646.854 276.037H648.454V344.748H658.778V265.544H647.66L626.957 280.255V290.181Z" fill="black"/>
<path d="M741.438 421.328V421.441H753.368V421.272C753.368 412.831 760.064 406.416 768.956 406.416C777.396 406.416 783.924 412.155 783.924 419.358C783.924 425.718 781.336 429.994 771.432 440.293L742.112 470.175V478.728H797.656V468.092H759.107V467.811L779.422 447.384C791.296 435.228 796.361 428.194 796.361 418.74C796.361 405.853 784.825 396.004 769.349 396.004C753.198 396.004 741.438 406.697 741.438 421.328Z" fill="black"/>
<path fill-rule="evenodd" clip-rule="evenodd" d="M779.422 447.384C791.296 435.228 796.361 428.194 796.361 418.74C796.361 405.853 784.825 396.004 769.349 396.004C753.527 396.004 741.917 406.267 741.452 420.441C741.442 420.735 741.438 421.031 741.438 421.328V421.441H753.368V421.272C753.368 412.831 760.064 406.416 768.956 406.416C777.396 406.416 783.924 412.155 783.924 419.358C783.924 425.718 781.336 429.994 771.432 440.293L742.112 470.175V478.728H797.656V468.092H759.107V467.811L779.422 447.384ZM796.656 469.092H758.107V467.399L778.707 446.685C778.708 446.684 778.709 446.683 778.71 446.682C790.599 434.511 795.361 427.743 795.361 418.74C795.361 406.556 784.437 397.004 769.349 397.004C753.991 397.004 742.917 406.903 742.453 420.441H752.388C752.814 411.821 759.846 405.416 768.956 405.416C777.812 405.416 784.924 411.476 784.924 419.358C784.924 422.714 784.23 425.551 782.25 428.862C780.301 432.12 777.106 435.835 772.153 440.986L772.146 440.994L743.112 470.583V477.728H796.656V469.092Z" fill="black"/>
<path d="M804.169 610.428H814.299C824.993 610.428 831.633 615.83 831.633 624.609C831.633 632.543 824.541 638.171 814.637 638.171C804.394 638.171 797.979 632.824 797.191 625.059H785.092C785.88 639.071 797.135 648.694 814.637 648.694C831.571 648.694 844.461 638.958 844.461 624.777C844.461 613.41 836.58 605.926 824.372 605.082V604.857C834.444 603.055 841.084 595.796 841.084 585.667C841.084 573.174 829.887 564.451 814.524 564.451C798.429 564.451 787.68 573.624 786.724 587.862H798.598C799.33 579.871 805.182 574.806 813.961 574.806C823.583 574.806 828.761 579.815 828.761 587.355C828.761 595.008 822.741 600.523 813.961 600.523H804.169V610.428Z" fill="black"/>
<path fill-rule="evenodd" clip-rule="evenodd" d="M826.716 604.323C835.461 601.879 841.084 594.988 841.084 585.667C841.084 573.174 829.887 564.451 814.524 564.451C798.809 564.451 788.191 573.196 786.808 586.862C786.775 587.192 786.746 587.526 786.724 587.862H798.598C799.33 579.871 805.182 574.806 813.961 574.806C823.583 574.806 828.761 579.815 828.761 587.355C828.761 595.008 822.741 600.523 813.961 600.523H804.169V610.428H814.299C824.993 610.428 831.633 615.83 831.633 624.609C831.633 632.543 824.541 638.171 814.637 638.171C804.394 638.171 797.979 632.824 797.191 625.059H785.092C785.111 625.395 785.136 625.729 785.166 626.059C786.423 639.527 797.554 648.694 814.637 648.694C831.571 648.694 844.461 638.958 844.461 624.777C844.461 614.176 837.606 606.952 826.779 605.342C826.01 605.228 825.221 605.142 824.413 605.085C824.4 605.084 824.386 605.083 824.372 605.082V604.857C824.378 604.856 824.383 604.855 824.388 604.854C825.186 604.711 825.963 604.533 826.716 604.323ZM786.171 626.059C786.779 632.329 789.611 637.592 794.228 641.356C799.114 645.339 806.065 647.694 814.637 647.694C831.254 647.694 843.461 638.197 843.461 624.777C843.461 619.338 841.582 614.892 838.298 611.701C835.004 608.5 830.222 606.489 824.303 606.08L823.372 606.015V604.02L824.196 603.872C833.836 602.148 840.084 595.267 840.084 585.667C840.084 573.93 829.563 565.451 814.524 565.451C806.664 565.451 800.197 567.689 795.593 571.581C791.237 575.262 788.482 580.478 787.813 586.862H797.708C798.249 583.039 799.95 579.851 802.612 577.577C805.478 575.13 809.379 573.806 813.961 573.806C818.937 573.806 822.899 575.102 825.629 577.502C828.376 579.915 829.761 583.344 829.761 587.355C829.761 591.458 828.14 595.024 825.321 597.553C822.509 600.077 818.56 601.523 813.961 601.523H805.169V609.428H814.299C819.803 609.428 824.384 610.818 827.609 613.452C830.857 616.106 832.633 619.945 832.633 624.609C832.633 633.296 824.869 639.171 814.637 639.171C809.346 639.171 804.951 637.79 801.757 635.318C798.785 633.019 796.907 629.818 796.313 626.059H786.171Z" fill="black"/>
<path d="M780.747 833.351H792.847V817.312H803.989V806.733H792.847V752.146H774.613C756.324 778.595 747.095 793.171 740.117 806.283V817.312H780.747V833.351ZM751.879 806.621C758.351 794.859 766.566 782.197 780.635 761.882H780.86V806.902H751.879V806.621Z" fill="black"/>
<path fill-rule="evenodd" clip-rule="evenodd" d="M791.847 816.312H802.989V807.733H791.847V753.146H775.138C757.153 779.168 748.015 793.602 741.117 806.533V816.312H781.747V832.351H791.847V816.312ZM792.847 833.351H780.747V817.312H740.117V806.283C747.095 793.171 756.324 778.595 774.613 752.146H792.847V806.733H803.989V817.312H792.847V833.351ZM750.879 806.364L751.003 806.139C757.5 794.33 765.74 781.633 779.812 761.313L780.111 760.882H781.86V807.902H750.879V806.364ZM780.86 806.902V761.882H780.635C780.374 762.258 780.116 762.631 779.86 763.002C766.545 782.258 758.566 794.559 752.276 805.902C752.143 806.142 752.011 806.381 751.879 806.621V806.902H780.86Z" fill="black"/>
<path d="M638.205 958.976C655.706 958.976 667.974 947.443 667.974 930.786C667.974 915.029 656.775 903.606 641.187 903.606C633.253 903.606 626.613 906.7 623.067 911.822H622.786L625.036 886.892H663.247V876.256H614.907L610.63 922.176H622.167C625.318 916.83 631.396 913.623 638.43 913.623C648.559 913.623 655.65 920.938 655.65 931.124C655.65 941.309 648.559 948.456 638.318 948.456C629.257 948.456 622.335 942.941 621.435 934.894H609.393C610.124 949.075 621.998 958.976 638.205 958.976Z" fill="black"/>
<path fill-rule="evenodd" clip-rule="evenodd" d="M623.591 912.822H621.691L624.123 885.892H662.247V877.256H615.818L611.728 921.176H621.607C625.039 915.78 631.31 912.623 638.43 912.623C643.744 912.623 648.312 914.546 651.553 917.854C654.791 921.16 656.65 925.794 656.65 931.124C656.65 936.454 654.79 941.05 651.532 944.316C648.274 947.582 643.677 949.456 638.318 949.456C629.176 949.456 621.927 944.047 620.565 935.894H610.467C611.683 948.873 622.822 957.976 638.205 957.976C646.734 957.976 653.92 955.169 658.966 950.401C664.007 945.637 666.974 938.858 666.974 930.786C666.974 915.566 656.208 904.606 641.187 904.606C633.495 904.606 627.204 907.603 623.89 912.391L623.591 912.822ZM609.463 935.894C609.433 935.563 609.41 935.23 609.393 934.894H621.435C622.335 942.941 629.257 948.456 638.318 948.456C648.559 948.456 655.65 941.309 655.65 931.124C655.65 920.938 648.559 913.623 638.43 913.623C631.396 913.623 625.318 916.83 622.167 922.176H610.63L614.907 876.256H663.247V886.892H625.036L622.786 911.822H623.067C623.325 911.45 623.598 911.089 623.887 910.74C627.583 906.268 633.829 903.606 641.187 903.606C656.775 903.606 667.974 915.029 667.974 930.786C667.974 947.443 655.706 958.976 638.205 958.976C622.382 958.976 610.689 949.538 609.463 935.894Z" fill="black"/>
<path d="M462.347 1012.22C479.567 1012.22 492.003 1000.4 492.003 984.135C492.003 968.718 480.524 957.294 465.048 957.294C454.919 957.294 446.309 962.583 442.763 970.464H442.538C442.595 950.035 450.023 938.443 462.797 938.443C470.226 938.443 476.303 942.775 478.273 949.416H490.878C488.402 936.473 477.259 927.863 462.91 927.863C442.595 927.863 430.439 943.957 430.439 971.138C430.439 980.651 432.127 988.638 435.448 995.11C440.738 1006.09 450.361 1012.22 462.347 1012.22ZM462.234 1001.58C452.555 1001.58 445.071 993.931 445.071 984.303C445.071 974.684 452.442 967.592 462.347 967.592C472.307 967.592 479.454 974.684 479.454 984.534C479.454 994.037 471.801 1001.58 462.234 1001.58Z" fill="black"/>
<path fill-rule="evenodd" clip-rule="evenodd" d="M443.41 971.464H441.535L441.538 970.462C441.567 960.15 443.452 951.931 447.054 946.257C450.69 940.53 456.052 937.443 462.797 937.443C470.362 937.443 476.681 941.723 479.001 948.416H489.641C486.829 936.66 476.39 928.863 462.91 928.863C453.048 928.863 445.234 932.753 439.856 939.908C434.451 947.099 431.439 957.68 431.439 971.138C431.439 980.536 433.108 988.358 436.337 994.654L436.343 994.665L436.348 994.676C441.476 1005.31 450.754 1011.22 462.347 1011.22C479.066 1011.22 491.003 999.801 491.003 984.135C491.003 969.274 479.976 958.294 465.048 958.294C455.254 958.294 447.037 963.402 443.675 970.875L443.41 971.464ZM490.668 948.416C487.821 936.031 476.887 927.863 462.91 927.863C442.595 927.863 430.439 943.957 430.439 971.138C430.439 980.651 432.127 988.638 435.448 995.11C440.738 1006.09 450.361 1012.22 462.347 1012.22C479.567 1012.22 492.003 1000.4 492.003 984.135C492.003 968.718 480.524 957.294 465.048 957.294C455.609 957.294 447.489 961.887 443.558 968.89C443.27 969.402 443.005 969.927 442.763 970.464H442.538C442.538 970.431 442.538 970.397 442.538 970.363C442.54 970.062 442.542 969.762 442.547 969.464C442.551 969.181 442.557 968.9 442.564 968.62C443.053 949.339 450.413 938.443 462.797 938.443C470.226 938.443 476.303 942.775 478.273 949.416H490.878C490.814 949.08 490.744 948.747 490.668 948.416ZM462.234 1002.58C451.992 1002.58 444.071 994.473 444.071 984.303C444.071 974.1 451.923 966.592 462.347 966.592C472.851 966.592 480.454 974.123 480.454 984.534C480.454 994.6 472.343 1002.58 462.234 1002.58ZM445.071 984.303C445.071 993.931 452.555 1001.58 462.234 1001.58C471.801 1001.58 479.454 994.037 479.454 984.534C479.454 974.684 472.307 967.592 462.347 967.592C452.442 967.592 445.071 974.684 445.071 984.303Z" fill="black"/>
<path d="M259.052 957.46H272.276L307.56 887.174V876.256H252.299V886.892H295.124V887.174L259.052 957.46Z" fill="black"/>
<path fill-rule="evenodd" clip-rule="evenodd" d="M259.052 957.46H272.276L307.56 887.174V876.256H252.299V886.892H295.124V887.174L259.052 957.46ZM253.299 885.892H296.124V887.415L260.69 956.46H271.659L306.56 886.937V877.256H253.299V885.892Z" fill="black"/>
<path d="M141.988 834.874C159.996 834.874 172.714 825.194 172.714 811.407C172.714 801.109 165.454 792.78 154.65 790.529V790.248C163.654 787.659 169.394 780.681 169.394 772.071C169.394 759.635 157.97 750.63 141.988 750.63C126.063 750.63 114.526 759.691 114.526 772.015C114.526 780.737 120.322 787.772 129.326 790.248V790.529C118.577 792.78 111.262 801.052 111.262 811.407C111.262 825.138 123.867 834.874 141.988 834.874ZM141.988 824.744C131.634 824.744 124.262 818.779 124.262 810.507C124.262 802.178 131.634 796.157 141.988 796.157C152.342 796.157 159.658 802.122 159.658 810.507C159.658 818.779 152.342 824.744 141.988 824.744ZM141.988 786.027C133.153 786.027 127.019 780.737 127.019 773.366C127.019 765.937 133.153 760.647 141.988 760.647C150.767 760.647 156.957 765.937 156.957 773.366C156.957 780.737 150.711 786.027 141.988 786.027Z" fill="black"/>
<path fill-rule="evenodd" clip-rule="evenodd" d="M153.65 791.342V789.495L154.374 789.287C163.011 786.803 168.394 780.174 168.394 772.071C168.394 760.4 157.658 751.63 141.988 751.63C126.37 751.63 115.526 760.459 115.526 772.015C115.526 780.233 120.967 786.912 129.591 789.284L130.326 789.486V791.341L129.531 791.508C119.187 793.674 112.262 801.583 112.262 811.407C112.262 817.936 115.248 823.519 120.438 827.495C125.644 831.485 133.098 833.874 141.988 833.874C150.822 833.874 158.276 831.499 163.497 827.515C168.702 823.545 171.714 817.962 171.714 811.407C171.714 801.636 164.841 793.674 154.446 791.508L153.65 791.342ZM127.908 790.866C117.939 793.522 111.262 801.514 111.262 811.407C111.262 825.138 123.867 834.874 141.988 834.874C159.996 834.874 172.714 825.194 172.714 811.407C172.714 801.56 166.076 793.513 156.048 790.859C155.617 790.745 155.179 790.641 154.736 790.547C154.707 790.541 154.679 790.535 154.65 790.529V790.248C154.671 790.242 154.691 790.236 154.712 790.23C155.152 790.102 155.584 789.964 156.008 789.816C164.227 786.94 169.394 780.24 169.394 772.071C169.394 759.635 157.97 750.63 141.988 750.63C126.063 750.63 114.526 759.691 114.526 772.015C114.526 780.282 119.733 787.033 127.943 789.823C128.375 789.97 128.815 790.106 129.263 790.231C129.284 790.236 129.305 790.242 129.326 790.248V790.529C129.298 790.535 129.271 790.54 129.244 790.546C128.792 790.642 128.347 790.749 127.908 790.866ZM141.988 825.744C131.295 825.744 123.262 819.523 123.262 810.507C123.262 801.441 131.286 795.157 141.988 795.157C152.691 795.157 160.658 801.386 160.658 810.507C160.658 819.52 152.686 825.744 141.988 825.744ZM141.988 787.027C132.759 787.027 126.019 781.435 126.019 773.366C126.019 769.357 127.682 765.9 130.541 763.46C133.39 761.029 137.375 759.647 141.988 759.647C151.162 759.647 157.957 765.24 157.957 773.366C157.957 781.439 151.1 787.027 141.988 787.027ZM124.262 810.507C124.262 818.779 131.634 824.744 141.988 824.744C152.342 824.744 159.658 818.779 159.658 810.507C159.658 802.122 152.342 796.157 141.988 796.157C131.634 796.157 124.262 802.178 124.262 810.507ZM127.019 773.366C127.019 780.737 133.153 786.027 141.988 786.027C150.711 786.027 156.957 780.737 156.957 773.366C156.957 765.937 150.767 760.647 141.988 760.647C133.153 760.647 127.019 765.937 127.019 773.366Z" fill="black"/>
<path d="M104.442 648.685C124.814 648.685 136.857 632.591 136.857 605.41C136.857 595.9 135.168 587.909 131.848 581.437C126.615 570.52 116.935 564.386 104.893 564.386C87.7285 564.386 75.2363 576.204 75.2363 592.467C75.2363 607.886 86.772 619.31 102.191 619.31C112.659 619.31 121.212 614.02 124.476 606.03H124.532H124.589C124.645 606.03 124.702 606.03 124.702 606.03C124.702 626.513 117.273 638.218 104.611 638.218C97.1267 638.218 90.9369 633.773 89.0229 627.132H76.3613C78.7816 640.019 89.9803 648.685 104.442 648.685ZM104.893 609.012C95.0442 609.012 87.7853 601.809 87.7853 592.073C87.7853 582.619 95.382 575.135 105.061 575.135C114.74 575.135 122.281 582.676 122.281 592.298C122.281 601.865 114.853 609.012 104.893 609.012Z" fill="black"/>
<path fill-rule="evenodd" clip-rule="evenodd" d="M130.952 581.881L130.946 581.869C125.878 571.296 116.547 565.386 104.893 565.386C88.2284 565.386 76.2363 576.807 76.2363 592.467C76.2363 607.328 87.3187 618.31 102.191 618.31C112.335 618.31 120.469 613.195 123.551 605.651L123.805 605.03H125.702V606.03C125.702 616.369 123.83 624.628 120.252 630.336C116.641 636.096 111.308 639.218 104.611 639.218C96.995 639.218 90.5663 634.835 88.2888 628.132H77.5952C80.361 639.833 90.85 647.685 104.442 647.685C114.333 647.685 122.132 643.795 127.489 636.641C132.873 629.451 135.857 618.87 135.857 605.41C135.857 596.014 134.188 588.189 130.958 581.893L130.952 581.881ZM76.5686 628.132C76.4936 627.801 76.4245 627.468 76.3613 627.132H89.0229C90.9369 633.773 97.1267 638.218 104.611 638.218C116.866 638.218 124.218 627.255 124.679 607.981C124.686 607.666 124.692 607.349 124.696 607.03C124.699 606.729 124.701 606.426 124.701 606.122C124.702 606.092 124.702 606.063 124.702 606.033C124.702 606.032 124.702 606.031 124.702 606.03H124.476C124.24 606.609 123.975 607.174 123.684 607.724C119.961 614.759 111.9 619.31 102.191 619.31C86.772 619.31 75.2363 607.886 75.2363 592.467C75.2363 576.204 87.7285 564.386 104.893 564.386C116.935 564.386 126.615 570.52 131.848 581.437C135.168 587.909 136.857 595.9 136.857 605.41C136.857 632.591 124.814 648.685 104.442 648.685C90.3577 648.685 79.3682 640.465 76.5686 628.132ZM104.893 610.012C94.5007 610.012 86.7853 602.37 86.7853 592.073C86.7853 582.049 94.847 574.135 105.061 574.135C115.291 574.135 123.281 582.121 123.281 592.298C123.281 602.454 115.368 610.012 104.893 610.012ZM87.7853 592.073C87.7853 601.809 95.0442 609.012 104.893 609.012C114.853 609.012 122.281 601.865 122.281 592.298C122.281 582.676 114.74 575.135 105.061 575.135C95.382 575.135 87.7853 582.619 87.7853 592.073Z" fill="black"/>
<path d="M124.354 478.728H136.679V397.524H124.242L102.857 412.718V425.099L124.073 410.017H124.354V478.728ZM185.99 480.248C205.461 480.248 216.885 463.871 216.885 437.985C216.885 412.268 205.405 396.004 185.99 396.004C166.632 396.004 154.983 412.325 154.983 438.041C154.983 463.928 166.52 480.248 185.99 480.248ZM185.99 469.668C174.398 469.668 167.757 457.625 167.757 438.041C167.757 418.74 174.51 406.584 185.99 406.584C197.471 406.584 204.167 418.684 204.167 438.041C204.167 457.682 197.583 469.668 185.99 469.668Z" fill="black"/>
<path fill-rule="evenodd" clip-rule="evenodd" d="M124.354 478.728H136.679V397.524H124.242L102.857 412.718V425.099L124.073 410.017H124.354V478.728ZM103.857 423.161L123.754 409.017H125.354V477.728H135.679V398.524H124.561L103.857 413.234V423.161ZM207.928 468.239C213.055 461.134 215.885 450.798 215.885 437.985C215.885 425.259 213.042 414.994 207.91 407.939C202.803 400.92 195.381 397.004 185.99 397.004C176.628 397.004 169.177 400.933 164.035 407.969C158.867 415.039 155.983 425.318 155.983 438.041C155.983 450.853 158.84 461.174 163.994 468.264C169.122 475.318 176.571 479.248 185.99 479.248C195.407 479.248 202.828 475.306 207.928 468.239ZM171.658 461.693C168.429 456.025 166.757 447.923 166.757 438.041C166.757 428.295 168.459 420.237 171.701 414.578C174.967 408.877 179.825 405.584 185.99 405.584C192.154 405.584 197 408.863 200.252 414.558C203.48 420.211 205.167 428.269 205.167 438.041C205.167 447.95 203.51 456.052 200.296 461.713C197.054 467.423 192.206 470.668 185.99 470.668C179.774 470.668 174.912 467.408 171.658 461.693ZM216.885 437.985C216.885 463.871 205.461 480.248 185.99 480.248C166.52 480.248 154.983 463.928 154.983 438.041C154.983 412.325 166.632 396.004 185.99 396.004C205.405 396.004 216.885 412.268 216.885 437.985ZM167.757 438.041C167.757 457.625 174.398 469.668 185.99 469.668C197.583 469.668 204.167 457.682 204.167 438.041C204.167 418.684 197.471 406.584 185.99 406.584C174.51 406.584 167.757 418.74 167.757 438.041Z" fill="black"/>
<path d="M257.382 345.748H269.706V264.544H257.269L235.885 279.738V292.119L257.101 277.037H257.382V345.748ZM309.958 345.748H322.282V264.544H309.845L288.461 279.738V292.119L309.676 277.037H309.958V345.748Z" fill="black"/>
<path fill-rule="evenodd" clip-rule="evenodd" d="M257.382 345.748H269.706V264.544H257.269L235.885 279.738V292.119L257.101 277.037H257.382V345.748ZM236.885 290.181L256.781 276.037H258.382V344.748H268.706V265.544H257.588L236.885 280.255V290.181ZM309.958 345.748H322.282V264.544H309.845L288.461 279.738V292.119L309.676 277.037H309.958V345.748ZM289.461 290.181L309.357 276.037H310.958V344.748H321.282V265.544H310.164L289.461 280.255V290.181Z" fill="black"/>
<path d="M463.219 622.791C473.012 622.791 480.95 614.853 480.95 605.06C480.95 595.268 473.012 587.33 463.219 587.33C453.426 587.33 445.488 595.268 445.488 605.06C445.488 614.853 453.426 622.791 463.219 622.791Z" fill="#FF895F"/>
<path fill-rule="evenodd" clip-rule="evenodd" d="M444.988 605.06C444.988 594.991 453.15 586.83 463.219 586.83C473.288 586.83 481.45 594.991 481.45 605.06C481.45 615.129 473.288 623.291 463.219 623.291C453.15 623.291 444.988 615.129 444.988 605.06ZM463.219 587.83C453.703 587.83 445.988 595.544 445.988 605.06C445.988 614.577 453.703 622.291 463.219 622.291C472.736 622.291 480.45 614.577 480.45 605.06C480.45 595.544 472.736 587.83 463.219 587.83Z" fill="black"/>
<path fill-rule="evenodd" clip-rule="evenodd" d="M444.738 605.06C444.738 594.853 453.012 586.58 463.219 586.58C473.426 586.58 481.7 594.853 481.7 605.06C481.7 615.267 473.426 623.541 463.219 623.541C453.012 623.541 444.738 615.267 444.738 605.06ZM463.219 588.08C453.841 588.08 446.238 595.682 446.238 605.06C446.238 614.439 453.841 622.041 463.219 622.041C472.598 622.041 480.2 614.439 480.2 605.06C480.2 595.682 472.598 588.08 463.219 588.08Z" fill="black"/>
<path fill-rule="evenodd" clip-rule="evenodd" d="M444.238 605.06C444.238 594.577 452.736 586.08 463.219 586.08C473.702 586.08 482.2 594.577 482.2 605.06C482.2 615.543 473.702 624.041 463.219 624.041C452.736 624.041 444.238 615.543 444.238 605.06ZM463.219 587.08C453.288 587.08 445.238 595.13 445.238 605.06C445.238 614.991 453.288 623.041 463.219 623.041C473.15 623.041 481.2 614.991 481.2 605.06C481.2 595.13 473.15 587.08 463.219 587.08ZM463.219 588.58C454.117 588.58 446.738 595.958 446.738 605.06C446.738 614.163 454.117 621.541 463.219 621.541C472.321 621.541 479.7 614.163 479.7 605.06C479.7 595.958 472.321 588.58 463.219 588.58ZM445.738 605.06C445.738 595.406 453.564 587.58 463.219 587.58C472.874 587.58 480.7 595.406 480.7 605.06C480.7 614.715 472.874 622.541 463.219 622.541C453.564 622.541 445.738 614.715 445.738 605.06Z" fill="black"/>
<path fill-rule="evenodd" clip-rule="evenodd" d="M461 1059.85C713.394 1059.85 918 855.248 918 602.854C918 350.46 713.394 145.854 461 145.854C208.606 145.854 4 350.46 4 602.854C4 855.248 208.606 1059.85 461 1059.85ZM922 602.854C922 857.457 715.603 1063.85 461 1063.85C206.397 1063.85 0 857.457 0 602.854C0 348.251 206.397 141.854 461 141.854C715.603 141.854 922 348.251 922 602.854Z" fill="black"/>
<path fill-rule="evenodd" clip-rule="evenodd" d="M919 602.854C919 855.8 713.946 1060.85 461 1060.85C208.054 1060.85 3 855.8 3 602.854C3 349.908 208.054 144.854 461 144.854C713.946 144.854 919 349.908 919 602.854ZM461 1062.85C715.051 1062.85 921 856.904 921 602.854C921 348.803 715.051 142.854 461 142.854C206.949 142.854 1 348.803 1 602.854C1 856.904 206.949 1062.85 461 1062.85ZM918 602.854C918 855.248 713.394 1059.85 461 1059.85C208.606 1059.85 4 855.248 4 602.854C4 350.46 208.606 145.854 461 145.854C713.394 145.854 918 350.46 918 602.854ZM461 1063.85C715.603 1063.85 922 857.457 922 602.854C922 348.251 715.603 141.854 461 141.854C206.397 141.854 0 348.251 0 602.854C0 857.457 206.397 1063.85 461 1063.85Z" fill="black"/>
<mask id="mask0_698_349" style="mask-type:luminance" maskUnits="userSpaceOnUse" x="381" y="0" width="160" height="153">
<path d="M540.78 0H381.203V152.151H540.78V0Z" fill="white"/>
<path fill-rule="evenodd" clip-rule="evenodd" d="M539.78 1H382.203V151.151H539.78V1ZM540.78 0V152.151H381.203V0H540.78Z" fill="white"/>
</mask>
<g mask="url(#mask0_698_349)">
<path d="M533.335 30.106H388.609V74.572H533.335V30.106Z" fill="#EBEBEB"/>
<path fill-rule="evenodd" clip-rule="evenodd" d="M388.609 30.106H533.335V74.572H388.609V30.106ZM389.609 73.572H532.335V31.106H389.609V73.572Z" fill="black"/>
<path d="M533.335 74.5649H388.609V145.789H533.335V74.5649Z" fill="black"/>
<path fill-rule="evenodd" clip-rule="evenodd" d="M388.609 74.5649H533.335V145.789H388.609V74.5649ZM389.609 144.789H532.335V75.5649H389.609V144.789Z" fill="black"/>
<path d="M529.509 23.9185H503.742V11.2696C503.742 4.74178 500.328 0.00585938 495.624 0.00585938H428.811C424.107 0.00585938 420.692 4.74522 420.692 11.2696V23.9185H392.467C389.481 23.9226 386.618 25.1106 384.507 27.2221C382.395 29.3335 381.207 32.1962 381.203 35.1822V140.887C381.207 143.873 382.396 146.735 384.507 148.847C386.618 150.958 389.481 152.146 392.467 152.15H529.509C532.496 152.146 535.358 150.958 537.47 148.847C539.581 146.735 540.769 143.873 540.773 140.887V35.1856C540.77 32.199 539.582 29.3355 537.47 27.2233C535.359 25.1111 532.496 23.9226 529.509 23.9185ZM430.935 11.2696C430.935 10.927 430.958 10.5847 431.007 10.2455H493.43C493.478 10.5847 493.502 10.927 493.502 11.2696V23.9185H430.935V11.2696ZM530.533 140.887C530.533 141.158 530.425 141.419 530.233 141.611C530.042 141.802 529.781 141.911 529.509 141.911H392.467C392.195 141.911 391.935 141.802 391.743 141.611C391.551 141.419 391.443 141.158 391.443 140.887V79.937H439.48V83.0091C439.479 83.3321 439.543 83.6518 439.666 83.9501C439.79 84.2485 439.971 84.5196 440.199 84.7479C440.427 84.9763 440.699 85.1575 440.997 85.281C441.295 85.4047 441.615 85.4682 441.938 85.4682H482.497C482.82 85.4684 483.14 85.4049 483.438 85.2813C483.737 85.1577 484.007 84.9767 484.236 84.7483C484.464 84.5199 484.645 84.2487 484.769 83.9504C484.892 83.6519 484.956 83.3321 484.956 83.0091V79.937H530.533V140.887ZM530.533 69.693H391.443V35.1856C391.443 34.9141 391.551 34.6538 391.743 34.4618C391.935 34.2698 392.195 34.1618 392.467 34.1616H529.509C529.781 34.1618 530.042 34.2698 530.233 34.4618C530.425 34.6538 530.533 34.9141 530.533 35.1856V69.693Z" fill="#1F2937"/>
<path fill-rule="evenodd" clip-rule="evenodd" d="M537.47 27.2233C535.359 25.1111 532.496 23.9226 529.509 23.9185H503.742V11.2696C503.742 4.74178 500.328 0.00585938 495.624 0.00585938H428.811C424.107 0.00585938 420.692 4.74522 420.692 11.2696V23.9185H392.467C389.481 23.9226 386.618 25.1106 384.507 27.2221C382.395 29.3335 381.207 32.1962 381.203 35.1822V140.887C381.207 143.873 382.396 146.735 384.507 148.847C386.618 150.958 389.481 152.146 392.467 152.15H529.509C532.496 152.146 535.358 150.958 537.47 148.847C539.581 146.735 540.769 143.873 540.773 140.887V35.1856C540.77 32.199 539.582 29.3355 537.47 27.2233ZM539.773 35.1868C539.77 32.4648 538.688 29.8552 536.763 27.9303C534.839 26.0056 532.231 24.9226 529.509 24.9185C529.509 24.9185 529.508 24.9184 529.508 24.9184L502.742 24.9185V11.2696C502.742 8.17013 501.93 5.57073 500.636 3.77453C499.351 1.99202 497.604 1.00586 495.624 1.00586H428.811C426.83 1.00586 425.084 1.99264 423.799 3.77574C422.504 5.57246 421.692 8.17194 421.692 11.2696V24.9185L392.468 24.9184C392.468 24.9184 392.467 24.9185 392.467 24.9185C389.746 24.9226 387.138 26.0052 385.214 27.9292C383.29 29.8533 382.207 32.4618 382.203 35.1829V140.886C382.207 143.607 383.29 146.215 385.214 148.14C387.138 150.063 389.747 151.146 392.468 151.15H529.508C532.229 151.146 534.838 150.064 536.762 148.14C536.762 148.14 536.762 148.14 536.762 148.14M539.773 35.1868V140.885V35.1868ZM539.773 140.885C539.769 143.606 538.686 146.215 536.762 148.14L539.773 140.885ZM430.139 9.2455H494.298L494.42 10.105C494.475 10.4909 494.503 10.881 494.502 11.2721V24.9185H429.935L429.935 11.2718C429.935 11.2712 429.935 11.2706 429.935 11.27L430.935 11.2696C430.935 10.927 430.958 10.5847 431.007 10.2455H493.43C493.478 10.5847 493.502 10.927 493.502 11.2696V23.9185H430.935V11.2696M390.443 140.887V78.937H440.48V83.0091C440.479 83.2009 440.517 83.3908 440.59 83.5674C440.664 83.7445 440.771 83.9056 440.906 84.041C441.042 84.1764 441.203 84.2839 441.38 84.3572C441.556 84.4304 441.746 84.4682 441.938 84.4682H482.497C482.689 84.4683 482.879 84.4306 483.056 84.3574C483.232 84.2843 483.393 84.1772 483.529 84.0414C483.664 83.9054 483.772 83.7442 483.845 83.5674C483.918 83.3898 483.956 83.2 483.956 83.0091V78.937H531.533V140.887C531.533 141.424 531.319 141.939 530.94 142.318C530.562 142.696 530.047 142.911 529.509 142.911H392.467C391.929 142.911 391.415 142.696 391.036 142.318C390.656 141.938 390.443 141.423 390.443 140.887ZM484.769 83.9504C484.645 84.2487 484.464 84.5199 484.236 84.7483C484.007 84.9767 483.737 85.1577 483.438 85.2813C483.14 85.4049 482.82 85.4684 482.497 85.4682H441.938C441.615 85.4682 441.295 85.4047 440.997 85.281C440.699 85.1575 440.427 84.9763 440.199 84.7479C439.971 84.5196 439.79 84.2485 439.666 83.9501C439.543 83.6518 439.479 83.3321 439.48 83.0091V79.937H391.443V140.887C391.443 141.158 391.551 141.419 391.743 141.611C391.935 141.802 392.195 141.911 392.467 141.911H529.509C529.781 141.911 530.042 141.802 530.233 141.611C530.425 141.419 530.533 141.158 530.533 140.887V79.937H484.956V83.0091C484.956 83.3321 484.892 83.6519 484.769 83.9504ZM531.533 70.693H390.443V35.1856C390.443 34.6493 390.656 34.1341 391.036 33.7547C391.415 33.3754 391.929 33.1621 392.466 33.1616H529.509C530.046 33.1621 530.561 33.3752 530.941 33.7552C531.319 34.1336 531.533 34.6476 531.533 35.1856V70.693ZM530.533 69.693V35.1856C530.533 34.9141 530.425 34.6538 530.233 34.4618C530.042 34.2698 529.781 34.1618 529.509 34.1616H392.467C392.195 34.1618 391.935 34.2698 391.743 34.4618C391.551 34.6538 391.443 34.9141 391.443 35.1856V69.693H530.533Z" fill="black"/>
</g>
<path fill-rule="evenodd" clip-rule="evenodd" d="M430.709 468.864L493.811 468.864C497.246 468.865 500.63 469.698 503.672 471.293C506.715 472.887 509.326 475.194 511.282 478.018C513.238 480.841 514.481 484.097 514.905 487.505C515.328 490.914 514.92 494.375 513.714 497.591L493.697 550.989L544.29 773.598C544.366 773.933 544.265 774.284 544.022 774.527L462.967 855.582C462.577 855.972 461.944 855.972 461.553 855.582L380.498 774.527C380.255 774.284 380.154 773.933 380.23 773.598L430.823 550.989L410.806 497.591C409.601 494.375 409.192 490.914 409.616 487.505C410.039 484.097 411.282 480.841 413.238 478.018C415.195 475.194 417.806 472.887 420.848 471.293C423.891 469.698 427.275 468.865 430.709 468.864ZM430.709 470.864C430.709 470.864 430.71 470.864 430.709 470.864C427.598 470.865 424.533 471.62 421.776 473.064C419.02 474.508 416.655 476.599 414.882 479.157C413.11 481.715 411.984 484.664 411.6 487.752C411.217 490.84 411.587 493.975 412.679 496.889L432.801 550.568C432.869 550.751 432.883 550.95 432.84 551.14L382.303 773.503L462.26 853.461L542.218 773.503L491.681 551.14C491.637 550.95 491.651 550.751 491.719 550.568L511.841 496.889C512.933 493.975 513.304 490.84 512.92 487.752C512.536 484.664 511.41 481.715 509.638 479.157C507.866 476.599 505.5 474.508 502.744 473.064C499.988 471.62 496.922 470.865 493.811 470.864C493.811 470.864 493.811 470.864 493.811 470.864M493.811 470.864H430.709H493.811Z" fill="black"/>
<path fill-rule="evenodd" clip-rule="evenodd" d="M430.709 468.364L493.811 468.364C497.326 468.365 500.79 469.218 503.904 470.85C507.018 472.481 509.691 474.843 511.693 477.733C513.695 480.623 514.967 483.955 515.401 487.444C515.834 490.933 515.416 494.475 514.182 497.767L494.218 551.024L544.778 773.487C544.892 773.99 544.74 774.516 544.376 774.88L463.321 855.935C462.735 856.521 461.785 856.521 461.199 855.935L380.144 774.88C379.78 774.516 379.628 773.99 379.742 773.487L430.302 551.024L410.338 497.767C409.104 494.475 408.686 490.933 409.119 487.444C409.553 483.955 410.825 480.623 412.827 477.733C414.83 474.843 417.502 472.481 420.616 470.85C423.73 469.218 427.194 468.365 430.709 468.364ZM430.709 469.364C430.709 469.364 430.71 469.364 430.709 469.364C427.355 469.365 424.051 470.179 421.08 471.736C418.109 473.292 415.56 475.546 413.649 478.303C411.739 481.06 410.525 484.239 410.112 487.567C409.698 490.896 410.097 494.275 411.274 497.416L431.291 550.814C431.325 550.905 431.332 551.005 431.311 551.1L380.718 773.709C380.679 773.877 380.73 774.052 380.852 774.173L461.907 855.228C462.102 855.424 462.418 855.424 462.614 855.228L543.669 774.173C543.79 774.052 543.841 773.877 543.803 773.709L493.21 551.1C493.188 551.005 493.195 550.905 493.229 550.814L513.246 497.416C514.423 494.275 514.822 490.896 514.408 487.567C513.995 484.239 512.781 481.06 510.871 478.303C508.961 475.546 506.411 473.292 503.44 471.736C500.469 470.179 497.165 469.365 493.811 469.364C493.811 469.364 493.811 469.364 493.811 469.364M493.811 469.364L430.709 469.364L493.811 469.364ZM430.709 471.364C427.679 471.365 424.693 472.1 422.008 473.507C419.324 474.914 417.02 476.95 415.293 479.442C413.567 481.933 412.47 484.806 412.097 487.814C411.723 490.822 412.083 493.875 413.147 496.714L433.269 550.392C433.372 550.667 433.392 550.965 433.327 551.251L382.851 773.345L462.26 852.753L541.669 773.345L491.193 551.251C491.128 550.965 491.148 550.667 491.251 550.392L511.373 496.714C512.437 493.875 512.797 490.822 512.424 487.814C512.05 484.806 510.953 481.933 509.227 479.442C507.501 476.95 505.197 474.914 502.512 473.507C499.827 472.1 496.842 471.365 493.811 471.364M430.709 471.364C430.709 471.364 430.709 471.364 430.709 471.364V471.364ZM493.811 471.364H430.709H493.811ZM430.709 470.854L430.709 470.79L430.709 470.854ZM430.709 470.779L430.709 470.364L430.709 470.779ZM430.709 470.364C427.517 470.365 424.372 471.14 421.544 472.621L430.709 470.364ZM430.709 470.364H493.811C497.003 470.365 500.148 471.14 502.976 472.621C505.804 474.103 508.231 476.248 510.049 478.872C511.867 481.496 513.022 484.522 513.416 487.69C513.81 490.859 513.43 494.075 512.309 497.065L492.188 550.743C492.153 550.835 492.146 550.934 492.168 551.03L542.705 773.392C542.743 773.56 542.693 773.735 542.571 773.857L462.614 853.814C462.418 854.009 462.102 854.009 461.907 853.814L381.949 773.857C381.828 773.735 381.777 773.56 381.815 773.392L432.352 551.03C432.374 550.934 432.367 550.835 432.333 550.743L412.211 497.065C411.09 494.075 410.71 490.859 411.104 487.69C411.498 484.522 412.653 481.496 414.471 478.872C416.29 476.248 418.716 474.103 421.544 472.621" fill="black"/>
<path fill-rule="evenodd" clip-rule="evenodd" d="M430.844 550.906C430.844 550.354 431.291 549.906 431.844 549.906H492.635C492.917 549.906 493.185 550.025 493.375 550.234L594.694 661.684C595.065 662.093 595.035 662.725 594.626 663.097C594.218 663.468 593.585 663.438 593.214 663.03L492.193 551.906H431.844C431.291 551.906 430.844 551.459 430.844 550.906Z" fill="black"/>
<path fill-rule="evenodd" clip-rule="evenodd" d="M430.344 550.906C430.344 550.078 431.015 549.406 431.844 549.406H492.635C493.058 549.406 493.461 549.585 493.745 549.897L493.375 550.233L493.745 549.897L493.745 549.897L595.064 661.348C595.621 661.961 595.576 662.91 594.963 663.467C594.35 664.024 593.401 663.979 592.844 663.366L491.971 552.406H492.193V551.906L491.823 552.243L491.971 552.406H431.844C431.015 552.406 430.344 551.735 430.344 550.906ZM431.844 550.406C431.568 550.406 431.344 550.63 431.344 550.906C431.344 551.182 431.568 551.406 431.844 551.406H492.193C492.333 551.406 492.468 551.466 492.563 551.57L593.584 662.693C593.77 662.898 594.086 662.913 594.29 662.727C594.494 662.541 594.509 662.225 594.324 662.021L493.005 550.57L493.375 550.234L493.005 550.57C492.91 550.466 492.776 550.406 492.635 550.406H431.844Z" fill="black"/>
</svg>
